{
  "accessors": [
    {
      "name": "texture_0_1_0_positions",
      "componentType": 5126,
      "count": 7464,
      "min": [
        -0.14887450635433197,
        0.49960601329803467,
        -0.4565911591053009
      ],
      "max": [
        0.12452598661184311,
        0.6993865966796875,
        -0.14894752204418182
      ],
      "type": "VEC3",
      "bufferView": 0,
      "byteOffset": 0
    },
    {
      "name": "texture_0_1_0_normals",
      "componentType": 5126,
      "count": 7464,
      "min": [
        -0.9999415874481201,
        -0.9999327659606934,
        -0.9954565167427063
      ],
      "max": [
        0.9996503591537476,
        0.999523401260376,
        0.9999982714653015
      ],
      "type": "VEC3",
      "bufferView": 1,
      "byteOffset": 0
    },
    {
      "name": "texture_0_1_0_texcoords",
      "componentType": 5126,
      "count": 7464,
      "min": [
        0.001953125,
        0.00197240081615746
      ],
      "max": [
        0.9980292320251465,
        0.998046875
      ],
      "type": "VEC2",
      "bufferView": 2,
      "byteOffset": 0
    },
    {
      "name": "texture_0_1_0_indices",
      "componentType": 5123,
      "count": 23589,
      "min": [
        0
      ],
      "max": [
        7463
      ],
      "type": "SCALAR",
      "bufferView": 3,
      "byteOffset": 0
    }
  ],
  "asset": {
    "generator": "obj2gltf",
    "version": "2.0"
  },
  "buffers": [
    {
      "name": "owl_v1_005_1024",
      "byteLength": 2780272,
      "uri": "data:application/octet-stream;base64,"
    }
  ],
  "bufferViews": [
    {
      "name": "bufferView_0",
      "buffer": 0,
      "byteLength": 89568,
      "byteOffset": 0,
      "byteStride": 12,
      "target": 34962
    },
    {
      "name": "bufferView_1",
      "buffer": 0,
      "byteLength": 89568,
      "byteOffset": 89568,
      "byteStride": 12,
      "target": 34962
    },
    {
      "name": "bufferView_2",
      "buffer": 0,
      "byteLength": 59712,
      "byteOffset": 179136,
      "byteStride": 8,
      "target": 34962
    },
    {
      "name": "bufferView_3",
      "buffer": 0,
      "byteLength": 47180,
      "byteOffset": 238848,
      "target": 34963
    },
    {
      "buffer": 0,
      "byteOffset": 286028,
      "byteLength": 1075337
    },
    {
      "buffer": 0,
      "byteOffset": 1361365,
      "byteLength": 781131
    },
    {
      "buffer": 0,
      "byteOffset": 2142496,
      "byteLength": 637773
    }
  ],
  "images": [
    {
      "name": "owl_v1_005_1024_tex0",
      "mimeType": "image/jpeg",
      "bufferView": 4
    },
    {
      "name": "owl_v1_005_1024_norm0",
      "mimeType": "image/jpeg",
      "bufferView": 5
    },
    {
      "name": "owl_v1_005_1024_ao0",
      "mimeType": "image/jpeg",
      "bufferView": 6
    }
  ],
  "materials": [
    {
      "name": "texture_0",
      "pbrMetallicRoughness": {
        "baseColorTexture": {
          "index": 0
        },
        "baseColorFactor": [
          1,
          1,
          1,
          1
        ],
        "metallicFactor": 0,
        "roughnessFactor": 0.992
      },
      "normalTexture": {
        "index": 1
      },
      "occlusionTexture": {
        "index": 2
      },
      "emissiveFactor": [
        0,
        0,
        0
      ],
      "alphaMode": "OPAQUE",
      "doubleSided": false
    }
  ],
  "meshes": [
    {
      "name": "texture_0_1",
      "primitives": [
        {
          "attributes": {
            "POSITION": 0,
            "NORMAL": 1,
            "TEXCOORD_0": 2
          },
          "indices": 3,
          "material": 0,
          "mode": 4
        }
      ]
    }
  ],
  "nodes": [
    {
      "name": "texture_0",
      "mesh": 0
    }
  ],
  "samplers": [
    {
      "magFilter": 9729,
      "minFilter": 9986,
      "wrapS": 10497,
      "wrapT": 10497
    }
  ],
  "scene": 0,
  "scenes": [
    {
      "nodes": [
        0
      ]
    }
  ],
  "textures": [
    {
      "name": "owl_v1_005_1024_tex0",
      "sampler": 0,
      "source": 0
    },
    {
      "name": "owl_v1_005_1024_norm0",
      "sampler": 0,
      "source": 1
    },
    {
      "name": "owl_v1_005_1024_ao0",
      "sampler": 0,
      "source": 2
    }
  ]
}
